<svg xmlns="http://www.w3.org/2000/svg" xmlns:xlink="http://www.w3.org/1999/xlink" width="135" height="72" viewBox="0 0 135 72">
  <defs>
    <clipPath id="clip-path">
      <rect id="사각형_147998" data-name="사각형 147998" width="135" height="35" transform="translate(-22287 -21445)" fill="#fff" opacity="0.5"/>
    </clipPath>
  </defs>
  <g id="그룹_269" data-name="그룹 269" transform="translate(22287 21445)">
    <g id="마스크_그룹_13" data-name="마스크 그룹 13" clip-path="url(#clip-path)">
      <path id="new" d="M13.938-26.2q0-.347-.035-.9a3.838,3.838,0,0,0-.241-1.109,2.962,2.962,0,0,0-.587-.97,1.374,1.374,0,0,0-1.069-.416,2.828,2.828,0,0,0-1.828.806,12.7,12.7,0,0,0-1.863,2.068,23.167,23.167,0,0,0-1.76,2.8q-.828,1.542-1.449,3.015l-.276-.138q.69-1.518,1.587-3.243a21.875,21.875,0,0,1,2-3.174A10.548,10.548,0,0,1,10.9-29.843a5.312,5.312,0,0,1,3.036-.931,4.508,4.508,0,0,1,2.277.517,3.977,3.977,0,0,1,1.415,1.345,5.058,5.058,0,0,1,.69,1.9,13.2,13.2,0,0,1,.173,2.1,18.893,18.893,0,0,1-.276,2.9,23.818,23.818,0,0,1-.621,2.9q.9-1.725,2.139-3.76a28.6,28.6,0,0,1,2.76-3.8A15.8,15.8,0,0,1,25.806-29.6a6.929,6.929,0,0,1,3.864-1.173,4.914,4.914,0,0,1,4.209,1.751,7.308,7.308,0,0,1,1.311,4.5,7.233,7.233,0,0,1-.173,1.545q-.173.79-.38,1.477a56.29,56.29,0,0,1-2.863,7.521,60.137,60.137,0,0,0-2.933,7.658q-.207.756-.448,1.614a5.976,5.976,0,0,0-.241,1.614,6.765,6.765,0,0,0,.241,1.579q.242.962,1.484.962a3.073,3.073,0,0,0,1.9-.814,10.563,10.563,0,0,0,1.863-2,23.619,23.619,0,0,0,1.622-2.577q.759-1.391,1.311-2.543l.276.138Q36.294-7.107,35.5-5.555a20.2,20.2,0,0,1-1.828,2.933A11.007,11.007,0,0,1,31.361-.311a4.638,4.638,0,0,1-2.795.932A4.711,4.711,0,0,1,24.978-.624a4.842,4.842,0,0,1-1.173-3.458,8.852,8.852,0,0,1,.172-1.659q.172-.9.448-1.867a68.3,68.3,0,0,1,2.656-7.469q1.621-3.873,3-7.745.276-.83.517-1.9a8.769,8.769,0,0,0,.242-1.9,4.875,4.875,0,0,0-.552-2.386,2.081,2.081,0,0,0-2-1,5,5,0,0,0-3,1.279,18.743,18.743,0,0,0-3.208,3.354,34.8,34.8,0,0,0-2.967,4.634A31.786,31.786,0,0,0,16.905-15.7q-.828,2.351-1.449,4.219L14.249-7.849q-.587,1.763-1.173,3.631T11.73,0H6.555l4.968-15.251q.966-2.912,1.691-5.928A22.282,22.282,0,0,0,13.938-26.2Zm25.53,12.266a28.757,28.757,0,0,1,2.277-5.21,31.814,31.814,0,0,1,3.8-5.52,22.933,22.933,0,0,1,4.9-4.347,10.073,10.073,0,0,1,5.589-1.759,8.942,8.942,0,0,1,2.1.241,5.277,5.277,0,0,1,1.794.793A4.1,4.1,0,0,1,61.2-28.29a4.609,4.609,0,0,1,.483,2.208,7.007,7.007,0,0,1-.587,2.76A11.746,11.746,0,0,1,59.547-20.7a17.151,17.151,0,0,1-2.173,2.311,15.4,15.4,0,0,1-2.381,1.76,32.023,32.023,0,0,1-4.83,2.519q-2.553,1.07-5.865,2.243a23.156,23.156,0,0,0-.69,2.829A18.127,18.127,0,0,0,43.332-5.8,10.97,10.97,0,0,0,43.5-3.864a5.927,5.927,0,0,0,.621,1.794A3.782,3.782,0,0,0,45.333-.725a3.357,3.357,0,0,0,1.932.518A6.381,6.381,0,0,0,50.232-1a16.76,16.76,0,0,0,2.932-1.966,21.424,21.424,0,0,0,2.622-2.588,24.934,24.934,0,0,0,1.966-2.587L57.96-8a26.47,26.47,0,0,1-1.9,2.588A21.077,21.077,0,0,1,53.3-2.622,17.613,17.613,0,0,1,49.922-.38a8.469,8.469,0,0,1-3.9.932,7.025,7.025,0,0,1-5.278-2.277Q38.571-4,38.571-8.28a18.4,18.4,0,0,1,.207-2.656A20.589,20.589,0,0,1,39.468-13.938Zm4.968,1.587q2.415-.9,4.52-1.828a20.587,20.587,0,0,0,4.106-2.45A12.356,12.356,0,0,0,56.408-20.6a11.489,11.489,0,0,0,1.345-5.624,6.925,6.925,0,0,0-.138-1.277,5.145,5.145,0,0,0-.448-1.345,3.431,3.431,0,0,0-.828-1.069,1.88,1.88,0,0,0-1.277-.449,3.266,3.266,0,0,0-2.208,1.035,14.335,14.335,0,0,0-2.173,2.691,31.148,31.148,0,0,0-2.035,3.726q-.966,2.07-1.794,4.071T45.4-15.111Q44.781-13.386,44.436-12.351ZM76.245-28.428Q75-26.22,73.761-23.529t-2.243,5.555a54.673,54.673,0,0,0-1.656,5.693,23.082,23.082,0,0,0-.655,5.175q0,3.519,1.138,5.072a3.549,3.549,0,0,0,3,1.553,4.734,4.734,0,0,0,3.553-2,17.526,17.526,0,0,0,2.864-5.037,84.585,84.585,0,0,0,2.864-9.074q1.276-4.933,2.38-9.487a3.442,3.442,0,0,1,.9-1.828,2.341,2.341,0,0,1,1.518-.449q1.794,0,1.794,1.587a2.852,2.852,0,0,1-.035.379q-.035.242-.173.863-.759,3.036-1.552,5.8t-1.414,5.279q-.621,2.518-1.035,4.692a21.057,21.057,0,0,0-.414,3.9,9.681,9.681,0,0,0,.173,1.76,5.061,5.061,0,0,0,.655,1.725,4.3,4.3,0,0,0,1.311,1.346,3.653,3.653,0,0,0,2.07.552A4.481,4.481,0,0,0,90.632-.9,7.5,7.5,0,0,0,92.391-2a12.373,12.373,0,0,0,1.552-1.553A19.194,19.194,0,0,0,95.22-5.244a23.034,23.034,0,0,0,2.691-6.313,27.189,27.189,0,0,0,.9-6.935,31.715,31.715,0,0,0-.38-5.589,18.912,18.912,0,0,1-.379-3.45A5.252,5.252,0,0,1,98.5-29.7a1.858,1.858,0,0,1,1.9-1,2.3,2.3,0,0,1,2.1,1.242,6.389,6.389,0,0,1,.725,3.243,24.65,24.65,0,0,1-.38,4.243,42.3,42.3,0,0,1-1,4.347,36.424,36.424,0,0,1-1.483,4.209q-.863,2.036-1.829,3.83T96.359-5.969a23.742,23.742,0,0,1-2.622,3.312,13.151,13.151,0,0,1-3.07,2.415A7.068,7.068,0,0,1,87.147.69a5.65,5.65,0,0,1-3.14-.828,7.17,7.17,0,0,1-2.07-2A9.411,9.411,0,0,1,80.73-4.658a10.659,10.659,0,0,1-.483-2.312A15.46,15.46,0,0,1,76.21-1.207,7.647,7.647,0,0,1,71.277.69,7.814,7.814,0,0,1,68.793.276,6.6,6.6,0,0,1,66.55-1a6.706,6.706,0,0,1-1.656-2.242,7.487,7.487,0,0,1-.656-3.243,9.575,9.575,0,0,1,1.07-4.244A50.545,50.545,0,0,1,68-15.456q1.622-2.553,3.554-5.52A62.96,62.96,0,0,0,75.279-27.6a15.925,15.925,0,0,1-2.795,2.9A5.436,5.436,0,0,1,69-23.46a4.2,4.2,0,0,1-1.518-.242q-.621-.241-1.138-.483l-1.035-.483a2.659,2.659,0,0,0-1.139-.242A1.84,1.84,0,0,0,63-24.53a1.359,1.359,0,0,0-.483,1.139,1.531,1.531,0,0,0,.241.9q.241.345.1.345t-.655-.932a4.4,4.4,0,0,1-.518-2.174,3.259,3.259,0,0,1,1.069-2.415A3.67,3.67,0,0,1,65.412-28.7a3.28,3.28,0,0,1,1.759.448,9.725,9.725,0,0,1,1.345,1,12.813,12.813,0,0,0,1.276,1,2.8,2.8,0,0,0,1.622.448,3.752,3.752,0,0,0,2.415-.828,5.766,5.766,0,0,0,1.587-1.932,10.069,10.069,0,0,0,.552-1.311q.207-.621.552-.621.276,0,.276.414a2.252,2.252,0,0,1-.173.794Q76.452-28.842,76.245-28.428Z" transform="translate(-22289.4 -21412.227)" fill="#fff"/>
      <path id="타원_9388" data-name="타원 9388" d="M5.5,0A5.557,5.557,0,0,1,11,5.612a5.557,5.557,0,0,1-5.5,5.612A5.557,5.557,0,0,1,0,5.612,5.557,5.557,0,0,1,5.5,0Z" transform="translate(-22165.4 -21433)" fill="#fff"/>
    </g>
    <g id="마스크_그룹_14" data-name="마스크 그룹 14" transform="translate(0 37)" clip-path="url(#clip-path)">
      <path id="new-2" data-name="new" d="M13.938-26.2q0-.347-.035-.9a3.838,3.838,0,0,0-.241-1.109,2.962,2.962,0,0,0-.587-.97,1.374,1.374,0,0,0-1.069-.416,2.828,2.828,0,0,0-1.828.806,12.7,12.7,0,0,0-1.863,2.068,23.167,23.167,0,0,0-1.76,2.8q-.828,1.542-1.449,3.015l-.276-.138q.69-1.518,1.587-3.243a21.875,21.875,0,0,1,2-3.174A10.548,10.548,0,0,1,10.9-29.843a5.312,5.312,0,0,1,3.036-.931,4.508,4.508,0,0,1,2.277.517,3.977,3.977,0,0,1,1.415,1.345,5.058,5.058,0,0,1,.69,1.9,13.2,13.2,0,0,1,.173,2.1,18.893,18.893,0,0,1-.276,2.9,23.818,23.818,0,0,1-.621,2.9q.9-1.725,2.139-3.76a28.6,28.6,0,0,1,2.76-3.8A15.8,15.8,0,0,1,25.806-29.6a6.929,6.929,0,0,1,3.864-1.173,4.914,4.914,0,0,1,4.209,1.751,7.308,7.308,0,0,1,1.311,4.5,7.233,7.233,0,0,1-.173,1.545q-.173.79-.38,1.477a56.29,56.29,0,0,1-2.863,7.521,60.137,60.137,0,0,0-2.933,7.658q-.207.756-.448,1.614a5.976,5.976,0,0,0-.241,1.614,6.765,6.765,0,0,0,.241,1.579q.242.962,1.484.962a3.073,3.073,0,0,0,1.9-.814,10.563,10.563,0,0,0,1.863-2,23.619,23.619,0,0,0,1.622-2.577q.759-1.391,1.311-2.543l.276.138Q36.294-7.107,35.5-5.555a20.2,20.2,0,0,1-1.828,2.933A11.007,11.007,0,0,1,31.361-.311a4.638,4.638,0,0,1-2.795.932A4.711,4.711,0,0,1,24.978-.624a4.842,4.842,0,0,1-1.173-3.458,8.852,8.852,0,0,1,.172-1.659q.172-.9.448-1.867a68.3,68.3,0,0,1,2.656-7.469q1.621-3.873,3-7.745.276-.83.517-1.9a8.769,8.769,0,0,0,.242-1.9,4.875,4.875,0,0,0-.552-2.386,2.081,2.081,0,0,0-2-1,5,5,0,0,0-3,1.279,18.743,18.743,0,0,0-3.208,3.354,34.8,34.8,0,0,0-2.967,4.634A31.786,31.786,0,0,0,16.905-15.7q-.828,2.351-1.449,4.219L14.249-7.849q-.587,1.763-1.173,3.631T11.73,0H6.555l4.968-15.251q.966-2.912,1.691-5.928A22.282,22.282,0,0,0,13.938-26.2Zm25.53,12.266a28.757,28.757,0,0,1,2.277-5.21,31.814,31.814,0,0,1,3.8-5.52,22.933,22.933,0,0,1,4.9-4.347,10.073,10.073,0,0,1,5.589-1.759,8.942,8.942,0,0,1,2.1.241,5.277,5.277,0,0,1,1.794.793A4.1,4.1,0,0,1,61.2-28.29a4.609,4.609,0,0,1,.483,2.208,7.007,7.007,0,0,1-.587,2.76A11.746,11.746,0,0,1,59.547-20.7a17.151,17.151,0,0,1-2.173,2.311,15.4,15.4,0,0,1-2.381,1.76,32.023,32.023,0,0,1-4.83,2.519q-2.553,1.07-5.865,2.243a23.156,23.156,0,0,0-.69,2.829A18.127,18.127,0,0,0,43.332-5.8,10.97,10.97,0,0,0,43.5-3.864a5.927,5.927,0,0,0,.621,1.794A3.782,3.782,0,0,0,45.333-.725a3.357,3.357,0,0,0,1.932.518A6.381,6.381,0,0,0,50.232-1a16.76,16.76,0,0,0,2.932-1.966,21.424,21.424,0,0,0,2.622-2.588,24.934,24.934,0,0,0,1.966-2.587L57.96-8a26.47,26.47,0,0,1-1.9,2.588A21.077,21.077,0,0,1,53.3-2.622,17.613,17.613,0,0,1,49.922-.38a8.469,8.469,0,0,1-3.9.932,7.025,7.025,0,0,1-5.278-2.277Q38.571-4,38.571-8.28a18.4,18.4,0,0,1,.207-2.656A20.589,20.589,0,0,1,39.468-13.938Zm4.968,1.587q2.415-.9,4.52-1.828a20.587,20.587,0,0,0,4.106-2.45A12.356,12.356,0,0,0,56.408-20.6a11.489,11.489,0,0,0,1.345-5.624,6.925,6.925,0,0,0-.138-1.277,5.145,5.145,0,0,0-.448-1.345,3.431,3.431,0,0,0-.828-1.069,1.88,1.88,0,0,0-1.277-.449,3.266,3.266,0,0,0-2.208,1.035,14.335,14.335,0,0,0-2.173,2.691,31.148,31.148,0,0,0-2.035,3.726q-.966,2.07-1.794,4.071T45.4-15.111Q44.781-13.386,44.436-12.351ZM76.245-28.428Q75-26.22,73.761-23.529t-2.243,5.555a54.673,54.673,0,0,0-1.656,5.693,23.082,23.082,0,0,0-.655,5.175q0,3.519,1.138,5.072a3.549,3.549,0,0,0,3,1.553,4.734,4.734,0,0,0,3.553-2,17.526,17.526,0,0,0,2.864-5.037,84.585,84.585,0,0,0,2.864-9.074q1.276-4.933,2.38-9.487a3.442,3.442,0,0,1,.9-1.828,2.341,2.341,0,0,1,1.518-.449q1.794,0,1.794,1.587a2.852,2.852,0,0,1-.035.379q-.035.242-.173.863-.759,3.036-1.552,5.8t-1.414,5.279q-.621,2.518-1.035,4.692a21.057,21.057,0,0,0-.414,3.9,9.681,9.681,0,0,0,.173,1.76,5.061,5.061,0,0,0,.655,1.725,4.3,4.3,0,0,0,1.311,1.346,3.653,3.653,0,0,0,2.07.552A4.481,4.481,0,0,0,90.632-.9,7.5,7.5,0,0,0,92.391-2a12.373,12.373,0,0,0,1.552-1.553A19.194,19.194,0,0,0,95.22-5.244a23.034,23.034,0,0,0,2.691-6.313,27.189,27.189,0,0,0,.9-6.935,31.715,31.715,0,0,0-.38-5.589,18.912,18.912,0,0,1-.379-3.45A5.252,5.252,0,0,1,98.5-29.7a1.858,1.858,0,0,1,1.9-1,2.3,2.3,0,0,1,2.1,1.242,6.389,6.389,0,0,1,.725,3.243,24.65,24.65,0,0,1-.38,4.243,42.3,42.3,0,0,1-1,4.347,36.424,36.424,0,0,1-1.483,4.209q-.863,2.036-1.829,3.83T96.359-5.969a23.742,23.742,0,0,1-2.622,3.312,13.151,13.151,0,0,1-3.07,2.415A7.068,7.068,0,0,1,87.147.69a5.65,5.65,0,0,1-3.14-.828,7.17,7.17,0,0,1-2.07-2A9.411,9.411,0,0,1,80.73-4.658a10.659,10.659,0,0,1-.483-2.312A15.46,15.46,0,0,1,76.21-1.207,7.647,7.647,0,0,1,71.277.69,7.814,7.814,0,0,1,68.793.276,6.6,6.6,0,0,1,66.55-1a6.706,6.706,0,0,1-1.656-2.242,7.487,7.487,0,0,1-.656-3.243,9.575,9.575,0,0,1,1.07-4.244A50.545,50.545,0,0,1,68-15.456q1.622-2.553,3.554-5.52A62.96,62.96,0,0,0,75.279-27.6a15.925,15.925,0,0,1-2.795,2.9A5.436,5.436,0,0,1,69-23.46a4.2,4.2,0,0,1-1.518-.242q-.621-.241-1.138-.483l-1.035-.483a2.659,2.659,0,0,0-1.139-.242A1.84,1.84,0,0,0,63-24.53a1.359,1.359,0,0,0-.483,1.139,1.531,1.531,0,0,0,.241.9q.241.345.1.345t-.655-.932a4.4,4.4,0,0,1-.518-2.174,3.259,3.259,0,0,1,1.069-2.415A3.67,3.67,0,0,1,65.412-28.7a3.28,3.28,0,0,1,1.759.448,9.725,9.725,0,0,1,1.345,1,12.813,12.813,0,0,0,1.276,1,2.8,2.8,0,0,0,1.622.448,3.752,3.752,0,0,0,2.415-.828,5.766,5.766,0,0,0,1.587-1.932,10.069,10.069,0,0,0,.552-1.311q.207-.621.552-.621.276,0,.276.414a2.252,2.252,0,0,1-.173.794Q76.452-28.842,76.245-28.428Z" transform="translate(-22289.4 -21412.227)" fill="#242424"/>
      <path id="타원_9388-2" data-name="타원 9388" d="M5.5,0A5.557,5.557,0,0,1,11,5.612a5.557,5.557,0,0,1-5.5,5.612A5.557,5.557,0,0,1,0,5.612,5.557,5.557,0,0,1,5.5,0Z" transform="translate(-22165.4 -21433)" fill="#242424"/>
    </g>
  </g>
</svg>
