<svg xmlns="http://www.w3.org/2000/svg" xmlns:xlink="http://www.w3.org/1999/xlink" width="107" height="19" viewBox="0 0 107 19">
  <defs>
    <clipPath id="clip-path">
      <rect id="사각형_147990" data-name="사각형 147990" width="107" height="19" transform="translate(-22475 -23476)" fill="#fff" stroke="#707070" stroke-width="1"/>
    </clipPath>
  </defs>
  <g id="마스크_그룹_6" data-name="마스크 그룹 6" transform="translate(22475 23476)" clip-path="url(#clip-path)">
    <g id="그룹_258" data-name="그룹 258" transform="translate(-30269.436 -28147.393)">
      <path id="패스_83392" data-name="패스 83392" d="M7839.876,4673.548H7831.2v14.8h3.866v-5.506h6v5.506h3.866v-9.123C7844.938,4675.423,7843.547,4673.548,7839.876,4673.548Zm-4.807,7.355v-5.417h3.074c2.087,0,2.929.938,2.929,3.609v1.808Z" transform="translate(-21.103 -0.056)" fill="#242424"/>
      <path id="패스_83393" data-name="패스 83393" d="M7880.813,4673.548v4.249c0,2.153-.4,2.65-1.971,2.65h-2.184c-1.57,0-1.972-.5-1.972-2.65v-4.249h-3.866v4.119c0,3.386,1.054,4.719,4.1,4.719h.892v5.961h3.866v-5.961h.892c3.051,0,4.1-1.333,4.1-4.719v-4.119Z" transform="translate(-45.151 -0.056)" fill="#242424"/>
      <path id="패스_83394" data-name="패스 83394" d="M7808.185,4686.409h-4.955c-2.087,0-2.93-.939-2.93-3.608v-9.253h-3.864v9.124c0,3.8,1.39,5.676,5.061,5.676h6.688Z" transform="translate(0 -0.056)" fill="#242424"/>
      <path id="패스_83395" data-name="패스 83395" d="M7958.546,4673.456h-8.694v14.835h3.875v-5.519h6.018v5.519h3.875v-9.145C7963.62,4675.335,7962.227,4673.456,7958.546,4673.456Zm-4.819,7.372V4675.4h3.082c2.093,0,2.936.94,2.936,3.616v1.812Z" transform="translate(-93.121)" fill="#242424"/>
      <path id="패스_83396" data-name="패스 83396" d="M7995.19,4688.291h6.965v-1.943h-5.229c-2.3,0-3.324-1.122-3.324-4.006v-2.936c0-2.883,1.024-4.005,3.324-4.005h5.229v-1.944h-6.965c-3.888,0-5.463,2.061-5.463,6.078v2.679C7989.727,4686.229,7991.3,4688.291,7995.19,4688.291Z" transform="translate(-117.324)" fill="#242424"/>
      <path id="패스_83397" data-name="패스 83397" d="M7920.011,4673.539h-8.7v14.841h3.877v-5.622h4.823c3.3,0,4.894-1.855,4.894-4.609S7923.313,4673.539,7920.011,4673.539Zm-1.736,7.339h-3.087v-5.395h3.087c2.3,0,2.754,1.258,2.754,2.747S7920.575,4680.878,7918.274,4680.878Z" transform="translate(-69.727 -0.05)" fill="#242424"/>
      <path id="패스_83398" data-name="패스 83398" d="M8038.318,4673.456h-13.073v1.944h4.56v12.929h3.876V4675.4h4.638Z" transform="translate(-138.883)" fill="#242424"/>
    </g>
  </g>
</svg>
